<svg id="Layer_1" data-name="Layer 1" xmlns="http://www.w3.org/2000/svg" viewBox="0 0 650.16 650.16"><defs><style>.cls-1{fill:#fff;}</style></defs><path class="cls-1" d="M0,650.16V0H650.16V650.16ZM162.56,401.7c.58.82,1,1.47,1.49,2.1,1.89,2.58,3.73,5.19,5.69,7.72,4.81,6.23,10.54,11.59,16.27,16.94,6.07,5.67,12.1,11.41,18.89,16.26,10.4,7.42,21.84,12.9,33.45,18.1a120,120,0,0,0,32.6,9.32c15.19,2.11,30.41,4,45.63,5.89a136,136,0,0,0,31.82-.25,182.86,182.86,0,0,0,30.43-6.45c15.44-4.44,29.83-11.32,43.8-19.17a113.72,113.72,0,0,0,24.24-18.28c3.35-3.32,6.76-6.59,10.05-10,7.6-7.79,15-15.75,21.09-24.82,1.91-2.83,4.18-5.42,6.48-8.39,3.39,2,6.73,3.89,9.93,6,2.74,1.78,5.32,3.82,8,5.76A6.47,6.47,0,0,0,507,404c1.51-.18,2.26-.8,2.13-2.32a7.59,7.59,0,0,0-1.12-3.29,9.79,9.79,0,0,0-2.41-2.3A111.11,111.11,0,0,0,490.47,386c-.76-.42-1.49-.88-2.36-1.4l1.63-3c1.24.55,2.34,1,3.4,1.52a216.78,216.78,0,0,1,22.45,13.34,12.41,12.41,0,0,0,2.94,1.56,3.36,3.36,0,0,0,3.85-1.25,3.45,3.45,0,0,0,0-4,8.68,8.68,0,0,0-2.2-2.16c-8.45-5.63-16.82-11.38-26.17-15.49a4.13,4.13,0,0,1-.66-.42l1.07-2a11.35,11.35,0,0,1,1.52.3c3.24,1.13,6.51,2.19,9.71,3.44a122.46,122.46,0,0,1,22.77,11.7,8.09,8.09,0,0,0,3.73,1.34c2.6.17,4.08-1.95,3.42-4.48a5.84,5.84,0,0,0-2.65-3.28c-10.2-7-21-12.88-32.82-16.58-.6-.19-1.17-.44-1.81-.68a11.72,11.72,0,0,1,.38-1.24C506,347,509.24,329.65,512,312.19c1-6.3,1.5-12.69,2.09-19.05.65-7,1.34-14,1.66-21q.93-20.73,1.43-41.47c.25-11,.25-22.05.18-33.08a138.66,138.66,0,0,0-1.89-21.23c-1-6.31-2.1-12.6-3.07-18.91a411.4,411.4,0,0,0-9.27-46.25c-1.78-6.55-3.23-13.18-5.95-19.44a186.1,186.1,0,0,0-15.21-27.15,23.15,23.15,0,0,0-3.78-4.31,11.2,11.2,0,0,0-10.65-2.91,24.46,24.46,0,0,0-5.93,2.49,72.25,72.25,0,0,0-14.29,10.86c-14.87,14.33-27.46,30.53-38.79,47.74-3.56,5.4-6.93,10.93-10.37,16.41-1.88,3-4.64,4-8,3.63a56.74,56.74,0,0,1-6.62-1.09c-12.89-3.13-26-4.11-39.23-4.17-11.12-.05-22.23,0-33.31,1-4.45.42-8.95.56-13.35,1.28-8.74,1.43-17.44,3.17-26.15,4.81-2.59.48-5.16,1.08-7.75,1.54-4.2.75-6.48-.43-8.34-4.26-.52-1.07-1-2.19-1.47-3.28-6.21-13.72-13.3-27-22.75-38.77-12.61-15.75-28-28.44-44.6-39.75a24.7,24.7,0,0,0-6.45-3.08,12.45,12.45,0,0,0-12.76,2.56,20.67,20.67,0,0,0-3.79,4.3,99.87,99.87,0,0,0-6.74,11.84,360.56,360.56,0,0,0-15.2,40.07A513.21,513.21,0,0,0,128,167.61,504.58,504.58,0,0,0,120.35,227a205.63,205.63,0,0,0,.93,36.38c1.16,10.73,2.41,21.44,3.44,32.17a159.24,159.24,0,0,0,6.17,32.18,424.44,424.44,0,0,0,17.24,45.19c.31.69.54,1.41.83,2.19-.73.27-1.25.48-1.77.64-11.61,3.7-22.14,9.53-32.14,16.37a9.06,9.06,0,0,0-1.92,1.79,4,4,0,0,0-.38,4.49,3.72,3.72,0,0,0,4.28,1.36,13.13,13.13,0,0,0,3.16-1.62,128.3,128.3,0,0,1,30.73-14.41,17.4,17.4,0,0,1,1.86-.38c.34.81.61,1.44.89,2.12a7.34,7.34,0,0,1-.92.57c-8.76,4-16.69,9.44-24.67,14.75a9.38,9.38,0,0,0-2.42,2.28,3.39,3.39,0,0,0-.09,4.05,3.31,3.31,0,0,0,3.82,1.3,12.1,12.1,0,0,0,3-1.51,223.53,223.53,0,0,1,22.24-13.24c.83-.42,1.69-.77,2.62-1.19l1.67,3.11c-.77.45-1.34.75-1.87,1.1-4.85,3.22-9.72,6.44-14.53,9.72a12.64,12.64,0,0,0-2.62,2.44c-1.25,1.52-1.46,3.57-.64,4.68s2.76,1.29,4.65.31a20.91,20.91,0,0,0,3-2A101.65,101.65,0,0,1,162.56,401.7ZM344.38,530.31c0,4.26.71,8.23,3.26,11.66,3.28,4.41,8.55,6.35,14.22,3.58.36-.18.72-.36,1.07-.55,3.27-1.69,4.54-1.21,5.92,2.09,1.15,2.72,2.37,5.41,3.56,8.11.19.44.42.86.59,1.31.74,2.07.35,3.3-1.45,4.54a9.61,9.61,0,0,1-1.23.75,29.28,29.28,0,0,0-7.7,5.64c-5.25,5.24-9.51,11-10.24,18.74-.56,6,.49,11.64,4.21,16.55s8.73,7.25,14.85,6.49A19.45,19.45,0,0,0,384.31,602,34,34,0,0,0,391,588.89a29.66,29.66,0,0,0,1.37-10.4,56,56,0,0,0-6.85-22.27c-1.4-2.51-2.68-5.1-4.08-7.6a20.7,20.7,0,0,1-2.13-14.15,25.77,25.77,0,0,0,.48-7.86c-.75-5.12-1.95-10.18-3.18-15.21a21.16,21.16,0,0,0-4-8.11,5.87,5.87,0,0,0-5.63-2.48,22,22,0,0,1-4.06.16,8.11,8.11,0,0,0-5.81,1.8,26.92,26.92,0,0,0-4,3.74C347.44,513.46,344.93,521.58,344.38,530.31ZM204.58,503c-.16-1.28-.38-3.34-.69-5.39a9.53,9.53,0,0,0-.72-2.27,7.91,7.91,0,0,0-7.92-5.08c-3.25.27-5.85,2.87-6.79,6.5-.69,2.68,0,5.23.36,7.83.43,3.32,1.09,6.62,1.32,9.95a14.32,14.32,0,0,1-.72,5.39,2.47,2.47,0,0,1-4.41.73,15.59,15.59,0,0,1-1.72-3.11,23.3,23.3,0,0,0-1.6-3.2c-2.17-3-5.63-3-7.76,0a47,47,0,0,0-2.15,4.25,69.23,69.23,0,0,1-3.63,6.17,9.66,9.66,0,0,1-3,2.73c-2.36,1.39-4.38.17-4.32-2.57a12.37,12.37,0,0,1,.67-3.26,83.58,83.58,0,0,1,9.86-20.43c1.65-2.54,3.3-5.09,4.86-7.69a15.83,15.83,0,0,0,1.58-3.48,7,7,0,0,0-3.32-8.42c-2.85-1.59-6-1-8.43,1.65a23.29,23.29,0,0,0-2.1,2.9c-1.48,2.28-3,4.53-4.37,6.87-2.11,3.58-4.28,7.13-6.12,10.84a43.37,43.37,0,0,0-4.38,21.12,17.17,17.17,0,0,0,2.72,9.06c3,4.44,8.92,7.7,15.49,4.18a14.53,14.53,0,0,0,6.48-6.51c1.85-3.81,3.75-4.43,7.25-1.63,5.81,4.63,12.2,2.19,15.51-2a13,13,0,0,0,1-1.34A44.36,44.36,0,0,0,204.58,503ZM455.3,535.87a109,109,0,0,0-1.41-22.17,43.86,43.86,0,0,0-3.75-12.31c-2.77-5.41-7-8.86-13.2-9.44a12.06,12.06,0,0,0-8.59,2.3,3.73,3.73,0,0,0,2.59,6.87c.88-.05,1.75-.16,2.63-.23a4.44,4.44,0,0,1,4.51,2.53,17.71,17.71,0,0,1,1,2.16c1.29,3.33.57,4.91-2.84,6a18.69,18.69,0,0,0-6.37,3.22,25.47,25.47,0,0,0-8.51,13.56,12.14,12.14,0,0,0,1.88,10.94c3.49,4.62,8.21,6,13.81,4.79,4.55-1,5.26-.51,6.29,4a11,11,0,0,0,2.61,5.29c2.36,2.5,5,2.31,7.08-.45a12.13,12.13,0,0,0,2.23-7C455.38,542.59,455.3,539.23,455.3,535.87ZM472.73,478h0c0-2.24.13-4.49,0-6.71a11.74,11.74,0,0,0-1.06-4.36c-1.48-2.86-4.64-2.92-6.23-.1a12.4,12.4,0,0,0-1.35,4.53c-.58,4.67-1.1,9.36-1.38,14.05a7.17,7.17,0,0,1-3.33,6c-3.24,2.25-3.22,4.85-.22,7.46a4.9,4.9,0,0,0,.57.45c2,1.3,2.69,3.27,2.87,5.52.15,1.91.27,3.82.5,5.72a43.29,43.29,0,0,0,4.82,16.2A26.26,26.26,0,0,0,479.34,538a13.22,13.22,0,0,0,8.38,1.31c4.31-.78,8.39-2.27,11.48-5.51s5.92-6.48,8.74-9.84a80.44,80.44,0,0,0,5.74-7.66,14.6,14.6,0,0,0,1.57-4.46,1.8,1.8,0,0,0-.67-1.58,1.87,1.87,0,0,0-1.72.25,19.81,19.81,0,0,0-2.71,3c-1.63,2.17-3.16,4.42-4.75,6.62-3,4.17-7.19,6.73-11.84,8.64-5,2-9.24.82-13-2.78a24.87,24.87,0,0,1-5.53-8.34,38.42,38.42,0,0,1-2.69-13.8c-.1-3.06,1-4.55,3.88-5.59.75-.27,1.53-.46,2.29-.69,3.68-1.09,7.41-2,11-3.32a23.11,23.11,0,0,0,6.05-3.3,5.31,5.31,0,0,0,1.51-6.88,5.6,5.6,0,0,0-6.85-2.45,35.52,35.52,0,0,0-4.71,2.33c-2.4,1.27-4.74,2.64-7.16,3.88a6.92,6.92,0,0,1-2.51.67c-1.83.15-2.63-.5-3-2.32a10,10,0,0,1-.14-1.9C472.72,482.18,472.73,480.1,472.73,478ZM276,496.75h-.16c0-1.91.08-3.84,0-5.75a12.65,12.65,0,0,0-.64-3.51,3.58,3.58,0,0,0-6.94-.16,8.58,8.58,0,0,0-.61,2.3c-.94,7.2-1.9,14.39-2.71,21.61a70.33,70.33,0,0,1-2.43,12.67c-1.56,5.11-2.84,10.3-4.14,15.49a11.88,11.88,0,0,0-.27,4,6.28,6.28,0,0,0,4.62,5.56,5.6,5.6,0,0,0,6.4-2.07,10.15,10.15,0,0,0,1.92-3.79c.8-2.92,1.33-5.91,2-8.87a22.15,22.15,0,0,1,.94-3.2,2.28,2.28,0,0,1,2.25-1.51,2.12,2.12,0,0,1,2,1.73,11.47,11.47,0,0,1,.52,2.58c.21,3.18.26,6.38.55,9.56a17.15,17.15,0,0,0,1.1,4.87,4.42,4.42,0,0,0,4.46,3,4.74,4.74,0,0,0,4.23-3.68,19.78,19.78,0,0,0,.53-4.73c0-2.4-.19-4.79-.38-7.18-.35-4.22-.58-8.48-2.44-12.38a6.09,6.09,0,0,1,.94-7.11,24.67,24.67,0,0,0,2.66-3.69,52,52,0,0,0,2.91-6,7.29,7.29,0,0,0,.35-3.06,4.07,4.07,0,0,0-2.91-3.75c-1.74-.59-3.15.22-4.23,1.51a26.44,26.44,0,0,0-1.78,2.83c-1.43,2.22-2.81,4.46-4.33,6.61a6.85,6.85,0,0,1-2.15,1.85c-1.38.78-2.35.37-2.69-1.18a14.68,14.68,0,0,1-.18-3.57C275.59,504.09,275.81,500.42,276,496.75Zm-21.52,27.58h-.23c0-1.91.13-3.84,0-5.74a20.47,20.47,0,0,0-4.48-11.9c-2.48-2.95-5.69-4.89-9.56-4.6-2.75.2-5.14.17-7.49-1.47-1.53-1.08-3.13-.59-4,1.07a9.6,9.6,0,0,0-1.11,3.61c-.34,3.33-.58,6.68-.68,10a65.47,65.47,0,0,1-3.06,17.61c-.69,2.21-1.37,4.43-1.85,6.69a13.51,13.51,0,0,0-.24,4.25,4.39,4.39,0,0,0,3.23,3.79,3.92,3.92,0,0,0,4.3-1.38,10.27,10.27,0,0,0,2.07-3.44,83.59,83.59,0,0,0,4.42-23.18,20.91,20.91,0,0,1,.36-3.8,7.06,7.06,0,0,1,1.25-2.79,2.61,2.61,0,0,1,4.63.58,7.45,7.45,0,0,1,.76,2.51,53.65,53.65,0,0,1,.35,7.16c-.26,5.34-.74,10.66-1.14,16a10.24,10.24,0,0,0,1.19,6.47c2.13,3.42,6.51,3.58,8.71.21a9.54,9.54,0,0,0,1.48-4.22C253.83,536,254.12,530.14,254.49,524.33Zm130.09-3.06c.35,2.44.68,5.7,1.3,8.91a36.24,36.24,0,0,0,6.36,15.1c2.73,3.67,6.36,6,11,5.9a13.85,13.85,0,0,0,13.37-15,5.21,5.21,0,0,0-.47-1.83,2.2,2.2,0,0,0-3.52-1,20.1,20.1,0,0,0-2,1.68,28.44,28.44,0,0,1-3.17,2.54,4,4,0,0,1-5.87-1.19,18.11,18.11,0,0,1-1.83-3.35,38.13,38.13,0,0,1-3.19-15.13A27.52,27.52,0,0,1,398.18,507c1.51-3.66,3.93-4,6.43-1a15,15,0,0,0,1.92,2.13,2.75,2.75,0,0,0,4.64-1.14,4.05,4.05,0,0,0,.25-2.53,22.73,22.73,0,0,0-2.21-5.25,9.87,9.87,0,0,0-12.58-3.84,15.17,15.17,0,0,0-6.89,6.1C386.05,507.27,385,513.75,384.58,521.27Zm-61.35,1.2.75,0a12.11,12.11,0,0,1,.82,2.11c.26,1.49.43,3,.55,4.51.35,4.22.6,8.44,1,12.64a10.35,10.35,0,0,0,1.9,5.36c2.65,3.56,7.46,3.2,9.34-.84a9.16,9.16,0,0,0,.76-4.17c-.26-5.1-.59-10.19-1.12-15.27a21.86,21.86,0,0,0-4.62-11.39,10.3,10.3,0,0,0-4.66-3.63,15.9,15.9,0,0,1-6.24-3.37c-1.4-1.35-3-.83-3.89.95a6.38,6.38,0,0,0-.58,1.81c-.83,5.28-1.55,10.57-2.46,15.83-1,6-2.26,12.06-3.39,18.09a13.83,13.83,0,0,0-.39,2.36A4.19,4.19,0,0,0,314,551.6a3.8,3.8,0,0,0,3.95-2.11,10.49,10.49,0,0,0,1.11-2.88c.42-2,.71-3.92,1-5.89.8-5.2,1.57-10.41,2.4-15.61A19.5,19.5,0,0,1,323.23,522.47ZM220.36,506.8l-.24,0c0-.95,0-1.92,0-2.87a5.3,5.3,0,0,0-.37-1.39,3.54,3.54,0,0,0-7,0,6.65,6.65,0,0,0-.28,1.41c-.13,1.43-.28,2.86-.34,4.3a51.29,51.29,0,0,1-5.71,22.07c-1,1.84-1.94,3.68-2.86,5.54a19.33,19.33,0,0,0-1.3,3.08,6.39,6.39,0,0,0,3.32,7.66,6.29,6.29,0,0,0,7.8-2.37,9.71,9.71,0,0,0,1.38-2.77,87.39,87.39,0,0,0,2.51-9.73c.85-5.19,1.34-10.44,2-15.66Q219.82,511.44,220.36,506.8Zm85.88,20.65h-.16a28.93,28.93,0,0,0,0-4.06,10.31,10.31,0,0,0-1.16-3.81,2.59,2.59,0,0,0-4.56-.08,8.85,8.85,0,0,0-1.3,3.28,26.87,26.87,0,0,0-.5,5,38.58,38.58,0,0,1-2.77,14.7,9.14,9.14,0,0,0-.57,3.49,4.79,4.79,0,0,0,3.24,4.32,4.51,4.51,0,0,0,4.79-1.36,7,7,0,0,0,1.91-4.53C305.52,538.73,305.87,533.09,306.24,527.45Zm-2.32-14.83a5.49,5.49,0,0,0,5.19-5.75,5.57,5.57,0,0,0-5.38-5.61,5.69,5.69,0,0,0,.19,11.36Zm-86.56-29.17a4.1,4.1,0,0,0-4,4.25,4,4,0,0,0,4.14,3.77,3.91,3.91,0,0,0,3.8-4.08A4,4,0,0,0,217.36,483.45Z"/><path d="M162.56,401.7a101.65,101.65,0,0,0-15.74,10.1,20.91,20.91,0,0,1-3,2c-1.89,1-3.85.78-4.65-.31s-.61-3.16.64-4.68a12.64,12.64,0,0,1,2.62-2.44c4.81-3.28,9.68-6.5,14.53-9.72.53-.35,1.1-.65,1.87-1.1l-1.67-3.11c-.93.42-1.79.77-2.62,1.19a223.53,223.53,0,0,0-22.24,13.24,12.1,12.1,0,0,1-3,1.51,3.31,3.31,0,0,1-3.82-1.3,3.39,3.39,0,0,1,.09-4.05,9.38,9.38,0,0,1,2.42-2.28c8-5.31,15.91-10.72,24.67-14.75a7.34,7.34,0,0,0,.92-.57c-.28-.68-.55-1.31-.89-2.12a17.4,17.4,0,0,0-1.86.38,128.3,128.3,0,0,0-30.73,14.41,13.13,13.13,0,0,1-3.16,1.62,3.72,3.72,0,0,1-4.28-1.36,4,4,0,0,1,.38-4.49,9.06,9.06,0,0,1,1.92-1.79c10-6.84,20.53-12.67,32.14-16.37.52-.16,1-.37,1.77-.64-.29-.78-.52-1.5-.83-2.19a424.44,424.44,0,0,1-17.24-45.19,159.24,159.24,0,0,1-6.17-32.18c-1-10.73-2.28-21.44-3.44-32.17a205.63,205.63,0,0,1-.93-36.38A504.58,504.58,0,0,1,128,167.61a513.21,513.21,0,0,1,13.62-56.06,360.56,360.56,0,0,1,15.2-40.07,99.87,99.87,0,0,1,6.74-11.84,20.67,20.67,0,0,1,3.79-4.3,12.45,12.45,0,0,1,12.76-2.56,24.7,24.7,0,0,1,6.45,3.08c16.59,11.31,32,24,44.6,39.75,9.45,11.81,16.54,25,22.75,38.77.5,1.09,1,2.21,1.47,3.28,1.86,3.83,4.14,5,8.34,4.26,2.59-.46,5.16-1.06,7.75-1.54,8.71-1.64,17.41-3.38,26.15-4.81,4.4-.72,8.9-.86,13.35-1.28,11.08-1,22.19-1.1,33.31-1,13.22.06,26.34,1,39.23,4.17a56.74,56.74,0,0,0,6.62,1.09c3.37.41,6.13-.63,8-3.63,3.44-5.48,6.81-11,10.37-16.41,11.33-17.21,23.92-33.41,38.79-47.74a72.25,72.25,0,0,1,14.29-10.86,24.46,24.46,0,0,1,5.93-2.49,11.2,11.2,0,0,1,10.65,2.91,23.15,23.15,0,0,1,3.78,4.31,186.1,186.1,0,0,1,15.21,27.15c2.72,6.26,4.17,12.89,5.95,19.44a411.4,411.4,0,0,1,9.27,46.25c1,6.31,2.06,12.6,3.07,18.91a138.66,138.66,0,0,1,1.89,21.23c.07,11,.07,22.06-.18,33.08q-.48,20.74-1.43,41.47c-.32,7-1,14-1.66,21-.59,6.36-1.11,12.75-2.09,19.05-2.72,17.46-5.92,34.82-13.27,51.08a11.72,11.72,0,0,0-.38,1.24c.64.24,1.21.49,1.81.68,11.86,3.7,22.62,9.59,32.82,16.58a5.84,5.84,0,0,1,2.65,3.28c.66,2.53-.82,4.65-3.42,4.48a8.09,8.09,0,0,1-3.73-1.34,122.46,122.46,0,0,0-22.77-11.7c-3.2-1.25-6.47-2.31-9.71-3.44a11.35,11.35,0,0,0-1.52-.3l-1.07,2a4.13,4.13,0,0,0,.66.42c9.35,4.11,17.72,9.86,26.17,15.49a8.68,8.68,0,0,1,2.2,2.16,3.45,3.45,0,0,1,0,4,3.36,3.36,0,0,1-3.85,1.25,12.41,12.41,0,0,1-2.94-1.56,216.78,216.78,0,0,0-22.45-13.34c-1.06-.52-2.16-1-3.4-1.52l-1.63,3c.87.52,1.6,1,2.36,1.4a111.11,111.11,0,0,1,15.15,10.09,9.79,9.79,0,0,1,2.41,2.3,7.59,7.59,0,0,1,1.12,3.29c.13,1.52-.62,2.14-2.13,2.32a6.47,6.47,0,0,1-4.64-1.6c-2.64-1.94-5.22-4-8-5.76-3.2-2.09-6.54-3.95-9.93-6-2.3,3-4.57,5.56-6.48,8.39-6.11,9.07-13.49,17-21.09,24.82-3.29,3.38-6.7,6.65-10.05,10a113.72,113.72,0,0,1-24.24,18.28c-14,7.85-28.36,14.73-43.8,19.17a182.86,182.86,0,0,1-30.43,6.45,136,136,0,0,1-31.82.25c-15.22-1.91-30.44-3.78-45.63-5.89a120,120,0,0,1-32.6-9.32c-11.61-5.2-23-10.68-33.45-18.1-6.79-4.85-12.82-10.59-18.89-16.26-5.73-5.35-11.46-10.71-16.27-16.94-2-2.53-3.8-5.14-5.69-7.72C163.59,403.17,163.14,402.52,162.56,401.7Zm169,59.06c6.79-.7,14.15-1.14,21.4-2.26a160.88,160.88,0,0,0,45.3-14.23c8.86-4.27,17.75-8.55,25.51-14.67,9.54-7.53,18.75-15.4,26.1-25.28,4.57-6.15,9.33-12.16,13.42-18.67a25.87,25.87,0,0,1,4.54-5.21,25.91,25.91,0,0,0,5.65-7.08,200,200,0,0,0,11-23.66c.61-1.64,1.27-3.28,1.72-5,1.49-5.57-.63-7.18-4.16-8.39-1.13-.38-2.29-.71-3.44-1A65.62,65.62,0,0,1,445.42,314a45.6,45.6,0,0,0-8.91-8.64,9.85,9.85,0,0,1-4.37-8.15c-.09-2.71-.1-5.43-.27-8.14-.44-6.88-2.82-12.93-8-17.64a27.22,27.22,0,0,0-13.68-6.51A14.86,14.86,0,0,0,396.72,269a28.53,28.53,0,0,0-3.74,4c-2.43,3.36-4.75,6.81-7,10.29-1.48,2.3-2.87,4.62-5.31,6.06a6.81,6.81,0,0,1-8.4-.9c-2.8-2.63-3.24-5.93-2.55-9.49s2.34-6.43,3.86-9.51c1.92-3.91,1.55-6.07-1.7-8.92a34.22,34.22,0,0,1-7.71-9.42c-2.93-5.4-5.77-10.86-8.36-16.43-5-10.73-9.49-21.65-12.51-33.12-1.24-4.71-2.38-9.44-3.71-14.12a18.25,18.25,0,0,0-2.16-5c-1.09-1.67-2.5-1.65-3.74-.1a11.1,11.1,0,0,0-1.69,3.12c-.59,1.65-.85,3.42-1.48,5.05a16.74,16.74,0,0,1-2.28,4.43c-2.34,3-5.75,3.38-8.62.93a19.77,19.77,0,0,1-3.86-4.8c-1-1.62-1.48-3.53-2.35-5.24a14.19,14.19,0,0,0-2.34-3.55c-1.33-1.37-2.79-1.26-3.86.32a12.64,12.64,0,0,0-1.91,4.33,169,169,0,0,1-9.74,30.27c-3.23,7.83-6.38,15.72-11.2,22.75-2.43,3.56-2.56,6.92-.71,10.78a93.35,93.35,0,0,1,4.49,11.58,45,45,0,0,1,2,20.6,74.41,74.41,0,0,1-12.25,31.68c-6.34,9.22-14.23,16.6-24.89,20.61-9.32,3.5-19,4.16-28.8,3.29a127.93,127.93,0,0,1-20.28-3.47c-3.45-.87-6.41-.15-8.77,2.82a40.6,40.6,0,0,1-5.19,5.3,169.81,169.81,0,0,1-19,14.23,36.8,36.8,0,0,0-3.34,2.32,5.64,5.64,0,0,0-2.14,6.39,46.72,46.72,0,0,0,2,5.13c3,6.8,6.06,13.57,10.11,19.83a95.65,95.65,0,0,0,14,17.31c5.84,5.58,11.74,11.09,17.79,16.44,9.32,8.24,20.22,13.94,31.48,19,6.12,2.75,12.25,5.48,18.76,7.21,9.91,2.64,20.07,3.83,30.19,5.22,7.28,1,14.57,1.93,21.87,2.71C318.06,459.7,324.52,460.16,331.53,460.76ZM227.41,235.9c-2.45.34-7.14.83-11.77,1.64-7,1.23-13.66,3.77-18.79,8.87-13.19,13.1-18.55,28.76-13.39,47,3.37,11.91,11.2,20.08,23.41,23.49a80.3,80.3,0,0,0,8.63,2c7.57,1.26,15.16,2.27,22.88,1.24S252.84,316,258,310.15a62.24,62.24,0,0,0,7-9.41c4.16-7,7.09-14.69,6.9-22.89-.37-16-7.52-28.45-21.15-37C244.32,236.84,237.16,235.49,227.41,235.9ZM148,179.81c.08,1.27.07,2.57.27,3.82a17.44,17.44,0,0,0,1,4.15,2.25,2.25,0,0,0,3.33,1.35,12.88,12.88,0,0,0,3.93-2.6,190.48,190.48,0,0,1,20.06-17.82c12.5-9.69,26-17.49,41.35-21.61a13.37,13.37,0,0,0,1.8-.65c3.5-1.46,4.54-3.66,3.43-7.26a11,11,0,0,0-.61-1.56c-4-7.74-7.81-15.56-12-23.21a60.61,60.61,0,0,0-14.5-17.72c-3-2.45-6-4.81-9-7.18A13.09,13.09,0,0,0,184.64,88c-2.74-1.3-5-.71-6.66,1.81a27.21,27.21,0,0,0-1.83,3.36c-11.18,23-19.1,47.18-25.79,71.8A56.69,56.69,0,0,0,148,179.81Zm340.94,3.86c-.22-1.65-.31-3.34-.69-5-1.48-6.2-3.17-12.36-4.58-18.58A284.44,284.44,0,0,0,467.89,112c-1.57-3.67-3.17-7.34-5.05-10.85s-5.06-4-8.17-1.34a34.94,34.94,0,0,0-3.23,3.21,174.54,174.54,0,0,0-25.09,35.22,12.83,12.83,0,0,0-1,2.19c-.9,2.88-.15,4.81,2.43,6.27a19.06,19.06,0,0,0,2.39,1.09,122.6,122.6,0,0,1,40,25.72c3.74,3.59,7,7.65,10.54,11.46a18.77,18.77,0,0,0,3.12,2.93c2.33,1.55,3.92.87,4.61-1.82A22.11,22.11,0,0,0,488.91,183.67Z"/><path d="M344.38,530.31c.55-8.73,3.06-16.85,8.71-23.8a26.92,26.92,0,0,1,4-3.74,8.11,8.11,0,0,1,5.81-1.8,22,22,0,0,0,4.06-.16,5.87,5.87,0,0,1,5.63,2.48,21.16,21.16,0,0,1,4,8.11c1.23,5,2.43,10.09,3.18,15.21a25.77,25.77,0,0,1-.48,7.86,20.7,20.7,0,0,0,2.13,14.15c1.4,2.5,2.68,5.09,4.08,7.6a56,56,0,0,1,6.85,22.27,29.66,29.66,0,0,1-1.37,10.4A34,34,0,0,1,384.31,602a19.45,19.45,0,0,1-12.87,7.21c-6.12.76-11.13-1.57-14.85-6.49s-4.77-10.56-4.21-16.55c.73-7.69,5-13.5,10.24-18.74a29.28,29.28,0,0,1,7.7-5.64,9.61,9.61,0,0,0,1.23-.75c1.8-1.24,2.19-2.47,1.45-4.54-.17-.45-.4-.87-.59-1.31-1.19-2.7-2.41-5.39-3.56-8.11-1.38-3.3-2.65-3.78-5.92-2.09-.35.19-.71.37-1.07.55-5.67,2.77-10.94.83-14.22-3.58C345.09,538.54,344.39,534.57,344.38,530.31Zm35.32,46.92a40.36,40.36,0,0,0-.57-4.26c-.67-2.84-2.5-3.68-5-2.11a27,27,0,0,0-10.65,11.72,9.91,9.91,0,0,0,.71,9.85,5.65,5.65,0,0,0,8.7,1.44,14.11,14.11,0,0,0,3.08-3.63A25.9,25.9,0,0,0,379.7,577.23Zm-13.13-61.17c-.14-1.43-.18-2.87-.45-4.26-.56-2.84-2.79-3.59-4.87-1.55a18.06,18.06,0,0,0-3,4c-2.81,4.89-3.71,10.29-3.85,15.83a9.74,9.74,0,0,0,.61,3.5c.76,2.11,2.63,2.63,4.38,1.22a10.94,10.94,0,0,0,2.19-2.5A29.08,29.08,0,0,0,366.57,516.06Z"/><path d="M204.58,503a44.36,44.36,0,0,1-7,23.86,13,13,0,0,1-1,1.34c-3.31,4.15-9.7,6.59-15.51,2-3.5-2.8-5.4-2.18-7.25,1.63a14.53,14.53,0,0,1-6.48,6.51c-6.57,3.52-12.53.26-15.49-4.18a17.17,17.17,0,0,1-2.72-9.06A43.37,43.37,0,0,1,153.5,504c1.84-3.71,4-7.26,6.12-10.84,1.37-2.34,2.89-4.59,4.37-6.87a23.29,23.29,0,0,1,2.1-2.9c2.43-2.66,5.58-3.24,8.43-1.65a7,7,0,0,1,3.32,8.42,15.83,15.83,0,0,1-1.58,3.48c-1.56,2.6-3.21,5.15-4.86,7.69a83.58,83.58,0,0,0-9.86,20.43,12.37,12.37,0,0,0-.67,3.26c-.06,2.74,2,4,4.32,2.57a9.66,9.66,0,0,0,3-2.73,69.23,69.23,0,0,0,3.63-6.17,47,47,0,0,1,2.15-4.25c2.13-3,5.59-3,7.76,0a23.3,23.3,0,0,1,1.6,3.2,15.59,15.59,0,0,0,1.72,3.11,2.47,2.47,0,0,0,4.41-.73,14.32,14.32,0,0,0,.72-5.39c-.23-3.33-.89-6.63-1.32-9.95-.33-2.6-1-5.15-.36-7.83.94-3.63,3.54-6.23,6.79-6.5a7.91,7.91,0,0,1,7.92,5.08,9.53,9.53,0,0,1,.72,2.27C204.2,499.67,204.42,501.73,204.58,503Z"/><path d="M455.3,535.87c0,3.36.08,6.72,0,10.07a12.13,12.13,0,0,1-2.23,7c-2,2.76-4.72,3-7.08.45a11,11,0,0,1-2.61-5.29c-1-4.5-1.74-5-6.29-4-5.6,1.21-10.32-.17-13.81-4.79a12.14,12.14,0,0,1-1.88-10.94,25.47,25.47,0,0,1,8.51-13.56,18.69,18.69,0,0,1,6.37-3.22c3.41-1.07,4.13-2.65,2.84-6a17.71,17.71,0,0,0-1-2.16,4.44,4.44,0,0,0-4.51-2.53c-.88.07-1.75.18-2.63.23a3.73,3.73,0,0,1-2.59-6.87,12.06,12.06,0,0,1,8.59-2.3c6.2.58,10.43,4,13.2,9.44a43.86,43.86,0,0,1,3.75,12.31A109,109,0,0,1,455.3,535.87Zm-13.38-9.79a9.29,9.29,0,0,0,0-1.18c-.41-3.36-3-4.64-5.77-2.64a12.63,12.63,0,0,0-3.3,3.68,9.84,9.84,0,0,0-1.28,4.23c-.13,1.76,1.07,2.78,2.79,2.91C438,533.35,441.93,529.69,441.92,526.08Z"/><path d="M472.73,478c0,2.08,0,4.16,0,6.24a10,10,0,0,0,.14,1.9c.38,1.82,1.18,2.47,3,2.32a6.92,6.92,0,0,0,2.51-.67c2.42-1.24,4.76-2.61,7.16-3.88a35.52,35.52,0,0,1,4.71-2.33,5.6,5.6,0,0,1,6.85,2.45,5.31,5.31,0,0,1-1.51,6.88,23.11,23.11,0,0,1-6.05,3.3c-3.59,1.31-7.32,2.23-11,3.32-.76.23-1.54.42-2.29.69-2.85,1-4,2.53-3.88,5.59a38.42,38.42,0,0,0,2.69,13.8A24.87,24.87,0,0,0,480.6,526c3.72,3.6,8,4.81,13,2.78,4.65-1.91,8.83-4.47,11.84-8.64,1.59-2.2,3.12-4.45,4.75-6.62a19.81,19.81,0,0,1,2.71-3,1.87,1.87,0,0,1,1.72-.25,1.8,1.8,0,0,1,.67,1.58,14.6,14.6,0,0,1-1.57,4.46,80.44,80.44,0,0,1-5.74,7.66c-2.82,3.36-5.71,6.66-8.74,9.84s-7.17,4.73-11.48,5.51a13.22,13.22,0,0,1-8.38-1.31,26.26,26.26,0,0,1-11.44-11.24,43.29,43.29,0,0,1-4.82-16.2c-.23-1.9-.35-3.81-.5-5.72-.18-2.25-.87-4.22-2.87-5.52a4.9,4.9,0,0,1-.57-.45c-3-2.61-3-5.21.22-7.46a7.17,7.17,0,0,0,3.33-6c.28-4.69.8-9.38,1.38-14.05a12.4,12.4,0,0,1,1.35-4.53c1.59-2.82,4.75-2.76,6.23.1a11.74,11.74,0,0,1,1.06,4.36c.17,2.22,0,4.47,0,6.71Z"/><path d="M276,496.75c-.2,3.67-.42,7.34-.58,11a14.68,14.68,0,0,0,.18,3.57c.34,1.55,1.31,2,2.69,1.18a6.85,6.85,0,0,0,2.15-1.85c1.52-2.15,2.9-4.39,4.33-6.61a26.44,26.44,0,0,1,1.78-2.83c1.08-1.29,2.49-2.1,4.23-1.51a4.07,4.07,0,0,1,2.91,3.75,7.29,7.29,0,0,1-.35,3.06,52,52,0,0,1-2.91,6,24.67,24.67,0,0,1-2.66,3.69,6.09,6.09,0,0,0-.94,7.11c1.86,3.9,2.09,8.16,2.44,12.38.19,2.39.37,4.78.38,7.18a19.78,19.78,0,0,1-.53,4.73,4.74,4.74,0,0,1-4.23,3.68,4.42,4.42,0,0,1-4.46-3,17.15,17.15,0,0,1-1.1-4.87c-.29-3.18-.34-6.38-.55-9.56a11.47,11.47,0,0,0-.52-2.58,2.12,2.12,0,0,0-2-1.73,2.28,2.28,0,0,0-2.25,1.51,22.15,22.15,0,0,0-.94,3.2c-.68,3-1.21,6-2,8.87a10.15,10.15,0,0,1-1.92,3.79,5.6,5.6,0,0,1-6.4,2.07,6.28,6.28,0,0,1-4.62-5.56,11.88,11.88,0,0,1,.27-4c1.3-5.19,2.58-10.38,4.14-15.49a70.33,70.33,0,0,0,2.43-12.67c.81-7.22,1.77-14.41,2.71-21.61a8.58,8.58,0,0,1,.61-2.3,3.58,3.58,0,0,1,6.94.16,12.65,12.65,0,0,1,.64,3.51c.1,1.91,0,3.84,0,5.75Z"/><path d="M254.49,524.33c-.37,5.81-.66,11.63-1.17,17.43a9.54,9.54,0,0,1-1.48,4.22c-2.2,3.37-6.58,3.21-8.71-.21a10.24,10.24,0,0,1-1.19-6.47c.4-5.33.88-10.65,1.14-16a53.65,53.65,0,0,0-.35-7.16,7.45,7.45,0,0,0-.76-2.51,2.61,2.61,0,0,0-4.63-.58,7.06,7.06,0,0,0-1.25,2.79,20.91,20.91,0,0,0-.36,3.8,83.59,83.59,0,0,1-4.42,23.18,10.27,10.27,0,0,1-2.07,3.44,3.92,3.92,0,0,1-4.3,1.38,4.39,4.39,0,0,1-3.23-3.79,13.51,13.51,0,0,1,.24-4.25c.48-2.26,1.16-4.48,1.85-6.69a65.47,65.47,0,0,0,3.06-17.61c.1-3.34.34-6.69.68-10a9.6,9.6,0,0,1,1.11-3.61c.92-1.66,2.52-2.15,4-1.07,2.35,1.64,4.74,1.67,7.49,1.47,3.87-.29,7.08,1.65,9.56,4.6a20.47,20.47,0,0,1,4.48,11.9c.16,1.9,0,3.83,0,5.74Z"/><path d="M384.58,521.27c.38-7.52,1.47-14,5.16-19.79a15.17,15.17,0,0,1,6.89-6.1,9.87,9.87,0,0,1,12.58,3.84,22.73,22.73,0,0,1,2.21,5.25,4.05,4.05,0,0,1-.25,2.53,2.75,2.75,0,0,1-4.64,1.14,15,15,0,0,1-1.92-2.13c-2.5-3-4.92-2.69-6.43,1a27.52,27.52,0,0,0-1.67,10.82,38.13,38.13,0,0,0,3.19,15.13,18.11,18.11,0,0,0,1.83,3.35,4,4,0,0,0,5.87,1.19,28.44,28.44,0,0,0,3.17-2.54,20.1,20.1,0,0,1,2-1.68,2.2,2.2,0,0,1,3.52,1,5.21,5.21,0,0,1,.47,1.83,13.85,13.85,0,0,1-13.37,15c-4.62.07-8.25-2.23-11-5.9a36.24,36.24,0,0,1-6.36-15.1C385.26,527,384.93,523.71,384.58,521.27Z"/><path d="M323.23,522.47a19.5,19.5,0,0,0-.8,2.64c-.83,5.2-1.6,10.41-2.4,15.61-.31,2-.6,3.94-1,5.89a10.49,10.49,0,0,1-1.11,2.88A3.8,3.8,0,0,1,314,551.6a4.19,4.19,0,0,1-2.95-4.18,13.83,13.83,0,0,1,.39-2.36c1.13-6,2.34-12,3.39-18.09.91-5.26,1.63-10.55,2.46-15.83a6.38,6.38,0,0,1,.58-1.81c.88-1.78,2.49-2.3,3.89-.95a15.9,15.9,0,0,0,6.24,3.37,10.3,10.3,0,0,1,4.66,3.63,21.86,21.86,0,0,1,4.62,11.39c.53,5.08.86,10.17,1.12,15.27a9.16,9.16,0,0,1-.76,4.17c-1.88,4-6.69,4.4-9.34.84a10.35,10.35,0,0,1-1.9-5.36c-.4-4.2-.65-8.42-1-12.64-.12-1.51-.29-3-.55-4.51a12.11,12.11,0,0,0-.82-2.11Z"/><path d="M220.36,506.8q-.54,4.63-1.1,9.27c-.64,5.22-1.13,10.47-2,15.66a87.39,87.39,0,0,1-2.51,9.73,9.71,9.71,0,0,1-1.38,2.77,6.29,6.29,0,0,1-7.8,2.37,6.39,6.39,0,0,1-3.32-7.66,19.33,19.33,0,0,1,1.3-3.08c.92-1.86,1.9-3.7,2.86-5.54a51.29,51.29,0,0,0,5.71-22.07c.06-1.44.21-2.87.34-4.3a6.65,6.65,0,0,1,.28-1.41,3.54,3.54,0,0,1,7,0,5.3,5.3,0,0,1,.37,1.39c.06.95,0,1.92,0,2.87Z"/><path d="M306.24,527.45c-.37,5.64-.72,11.28-1.12,16.92a7,7,0,0,1-1.91,4.53,4.51,4.51,0,0,1-4.79,1.36,4.79,4.79,0,0,1-3.24-4.32,9.14,9.14,0,0,1,.57-3.49,38.58,38.58,0,0,0,2.77-14.7,26.87,26.87,0,0,1,.5-5,8.85,8.85,0,0,1,1.3-3.28,2.59,2.59,0,0,1,4.56.08,10.31,10.31,0,0,1,1.16,3.81,28.93,28.93,0,0,1,0,4.06Z"/><path d="M303.92,512.62a5.69,5.69,0,0,1-.19-11.36,5.57,5.57,0,0,1,5.38,5.61A5.49,5.49,0,0,1,303.92,512.62Z"/><path d="M217.36,483.45a4,4,0,0,1,4,3.94,3.91,3.91,0,0,1-3.8,4.08,4,4,0,0,1-4.14-3.77A4.1,4.1,0,0,1,217.36,483.45Z"/><path class="cls-1" d="M331.53,460.76c-7-.6-13.47-1.06-19.9-1.75-7.3-.78-14.59-1.71-21.87-2.71-10.12-1.39-20.28-2.58-30.19-5.22-6.51-1.73-12.64-4.46-18.76-7.21-11.26-5.06-22.16-10.76-31.48-19-6.05-5.35-12-10.86-17.79-16.44a95.65,95.65,0,0,1-14-17.31c-4.05-6.26-7.11-13-10.11-19.83a46.72,46.72,0,0,1-2-5.13,5.64,5.64,0,0,1,2.14-6.39,36.8,36.8,0,0,1,3.34-2.32,169.81,169.81,0,0,0,19-14.23,40.6,40.6,0,0,0,5.19-5.3c2.36-3,5.32-3.69,8.77-2.82a127.93,127.93,0,0,0,20.28,3.47c9.82.87,19.48.21,28.8-3.29,10.66-4,18.55-11.39,24.89-20.61A74.41,74.41,0,0,0,290.12,283a45,45,0,0,0-2-20.6,93.35,93.35,0,0,0-4.49-11.58c-1.85-3.86-1.72-7.22.71-10.78,4.82-7,8-14.92,11.2-22.75A169,169,0,0,0,305.31,187a12.64,12.64,0,0,1,1.91-4.33c1.07-1.58,2.53-1.69,3.86-.32a14.19,14.19,0,0,1,2.34,3.55c.87,1.71,1.36,3.62,2.35,5.24a19.77,19.77,0,0,0,3.86,4.8c2.87,2.45,6.28,2,8.62-.93a16.74,16.74,0,0,0,2.28-4.43c.63-1.63.89-3.4,1.48-5.05a11.1,11.1,0,0,1,1.69-3.12c1.24-1.55,2.65-1.57,3.74.1a18.25,18.25,0,0,1,2.16,5c1.33,4.68,2.47,9.41,3.71,14.12,3,11.47,7.54,22.39,12.51,33.12,2.59,5.57,5.43,11,8.36,16.43a34.22,34.22,0,0,0,7.71,9.42c3.25,2.85,3.62,5,1.7,8.92-1.52,3.08-3.2,6.09-3.86,9.51s-.25,6.86,2.55,9.49a6.81,6.81,0,0,0,8.4.9c2.44-1.44,3.83-3.76,5.31-6.06,2.24-3.48,4.56-6.93,7-10.29a28.53,28.53,0,0,1,3.74-4,14.86,14.86,0,0,1,13.45-4.12,27.22,27.22,0,0,1,13.68,6.51c5.2,4.71,7.58,10.76,8,17.64.17,2.71.18,5.43.27,8.14a9.85,9.85,0,0,0,4.37,8.15,45.6,45.6,0,0,1,8.91,8.64,65.62,65.62,0,0,0,33.17,21.3c1.15.32,2.31.65,3.44,1,3.53,1.21,5.65,2.82,4.16,8.39-.45,1.7-1.11,3.34-1.72,5a200,200,0,0,1-11,23.66,25.91,25.91,0,0,1-5.65,7.08,25.87,25.87,0,0,0-4.54,5.21c-4.09,6.51-8.85,12.52-13.42,18.67-7.35,9.88-16.56,17.75-26.1,25.28-7.76,6.12-16.65,10.4-25.51,14.67a160.88,160.88,0,0,1-45.3,14.23C345.68,459.62,338.32,460.06,331.53,460.76ZM314.77,354.08a44.18,44.18,0,0,1-4.25,20.72,27.16,27.16,0,0,1-7.21,9.75c-5.09,4.3-10.87,6-17.41,4.25-9.32-2.53-15.88-8-18.11-17.78a13.18,13.18,0,0,0-2.54-5.62,7.5,7.5,0,0,0-11.71-.27,9.88,9.88,0,0,0-2.56,6.55,23.53,23.53,0,0,0,1.72,9.61c4.66,11.85,13.4,19.46,25.21,23.65,8.46,3,17,3.47,25.52-.05a41.73,41.73,0,0,0,16.19-11.65,36.21,36.21,0,0,1,3.2-3.57c2-1.82,3.88-1.88,6.08-.31a14.68,14.68,0,0,1,2.31,2.08,44.82,44.82,0,0,0,14,9.94c8.24,3.85,16.78,5.51,25.87,3.69,8.54-1.7,15.32-6.29,20.94-12.66,9.27-10.5,11.7-22.58,7.74-36a12.17,12.17,0,0,0-3.44-5.67,8,8,0,0,0-13.39,3.64,13.7,13.7,0,0,0-.15,5.42c.51,3.88,1.32,7.68.67,11.66-1.35,8.17-9.27,15.91-17.32,16.7-11.19,1.1-24.68-5.36-27.9-19.17-1.41-6.06-2.55-12.19-3.77-18.29a13.63,13.63,0,0,1-.12-2.39,5.79,5.79,0,0,1,2.42-5c1.33-1,2.75-1.92,4.12-2.88a20.76,20.76,0,0,0,6.33-6.79,12.18,12.18,0,0,0,1.79-7.56c-.61-5.3-3.77-8.68-8.4-10.82a23.28,23.28,0,0,0-10.51-2,63.54,63.54,0,0,0-22,4.42,29.33,29.33,0,0,0-7,4c-3.63,2.82-4.63,7.09-3.16,11.44a10.62,10.62,0,0,0,6.83,6.89c1.35.48,2.78.74,4.16,1.13,4,1.14,5.57,3,5.84,7.16C314.87,350.18,314.77,352,314.77,354.08Z"/><path class="cls-1" d="M227.41,235.9c9.75-.41,16.91.94,23.34,5,13.63,8.53,20.78,21,21.15,37,.19,8.2-2.74,15.87-6.9,22.89a62.24,62.24,0,0,1-7,9.41c-5.19,5.88-11.93,8.9-19.65,9.93s-15.31,0-22.88-1.24a80.3,80.3,0,0,1-8.63-2c-12.21-3.41-20-11.58-23.41-23.49-5.16-18.22.2-33.88,13.39-47,5.13-5.1,11.74-7.64,18.79-8.87C220.27,236.73,225,236.24,227.41,235.9Zm1.35,20.16c-4.54,0-7.34.64-10.25,2.12-7.27,3.69-11.55,12.55-9.24,19.89a20.13,20.13,0,0,0,13.41,13.63c9.1,3,19.57-2.84,22.93-12.42a15.66,15.66,0,0,0-3-16.14A19.1,19.1,0,0,0,228.76,256.06Z"/><path class="cls-1" d="M148,179.81a56.69,56.69,0,0,1,2.39-14.87c6.69-24.62,14.61-48.79,25.79-71.8A27.21,27.21,0,0,1,178,89.78c1.7-2.52,3.92-3.11,6.66-1.81a13.09,13.09,0,0,1,2.42,1.55c3,2.37,6,4.73,9,7.18a60.61,60.61,0,0,1,14.5,17.72c4.15,7.65,8,15.47,12,23.21a11,11,0,0,1,.61,1.56c1.11,3.6.07,5.8-3.43,7.26a13.37,13.37,0,0,1-1.8.65C202.5,151.22,189,159,176.54,168.71a190.48,190.48,0,0,0-20.06,17.82,12.88,12.88,0,0,1-3.93,2.6,2.25,2.25,0,0,1-3.33-1.35,17.44,17.44,0,0,1-1-4.15C148,182.38,148.05,181.08,148,179.81Z"/><path class="cls-1" d="M488.91,183.67a22.11,22.11,0,0,1-.37,2.39c-.69,2.69-2.28,3.37-4.61,1.82a18.77,18.77,0,0,1-3.12-2.93c-3.53-3.81-6.8-7.87-10.54-11.46a122.6,122.6,0,0,0-40-25.72,19.06,19.06,0,0,1-2.39-1.09c-2.58-1.46-3.33-3.39-2.43-6.27a12.83,12.83,0,0,1,1-2.19A174.54,174.54,0,0,1,451.44,103a34.94,34.94,0,0,1,3.23-3.21c3.11-2.64,6.24-2.23,8.17,1.34s3.48,7.18,5.05,10.85a284.44,284.44,0,0,1,15.75,48.15c1.41,6.22,3.1,12.38,4.58,18.58C488.6,180.33,488.69,182,488.91,183.67Z"/><path class="cls-1" d="M379.7,577.23a25.9,25.9,0,0,1-3.71,13,14.11,14.11,0,0,1-3.08,3.63,5.65,5.65,0,0,1-8.7-1.44,9.91,9.91,0,0,1-.71-9.85,27,27,0,0,1,10.65-11.72c2.48-1.57,4.31-.73,5,2.11A40.36,40.36,0,0,1,379.7,577.23Z"/><path class="cls-1" d="M366.57,516.06a29.08,29.08,0,0,1-5,16.2,10.94,10.94,0,0,1-2.19,2.5c-1.75,1.41-3.62.89-4.38-1.22a9.74,9.74,0,0,1-.61-3.5c.14-5.54,1-10.94,3.85-15.83a18.06,18.06,0,0,1,3-4c2.08-2,4.31-1.29,4.87,1.55C366.39,513.19,366.43,514.63,366.57,516.06Z"/><path class="cls-1" d="M441.92,526.08c0,3.61-4,7.27-7.57,7-1.72-.13-2.92-1.15-2.79-2.91a9.84,9.84,0,0,1,1.28-4.23,12.63,12.63,0,0,1,3.3-3.68c2.73-2,5.36-.72,5.77,2.64A9.29,9.29,0,0,1,441.92,526.08Z"/><path d="M314.77,354.08c0-2.05.1-3.9,0-5.73-.27-4.16-1.84-6-5.84-7.16-1.38-.39-2.81-.65-4.16-1.13a10.62,10.62,0,0,1-6.83-6.89c-1.47-4.35-.47-8.62,3.16-11.44a29.33,29.33,0,0,1,7-4,63.54,63.54,0,0,1,22-4.42,23.28,23.28,0,0,1,10.51,2c4.63,2.14,7.79,5.52,8.4,10.82a12.18,12.18,0,0,1-1.79,7.56,20.76,20.76,0,0,1-6.33,6.79c-1.37,1-2.79,1.87-4.12,2.88a5.79,5.79,0,0,0-2.42,5,13.63,13.63,0,0,0,.12,2.39c1.22,6.1,2.36,12.23,3.77,18.29,3.22,13.81,16.71,20.27,27.9,19.17,8.05-.79,16-8.53,17.32-16.7.65-4-.16-7.78-.67-11.66a13.7,13.7,0,0,1,.15-5.42,8,8,0,0,1,13.39-3.64,12.17,12.17,0,0,1,3.44,5.67c4,13.4,1.53,25.48-7.74,36-5.62,6.37-12.4,11-20.94,12.66-9.09,1.82-17.63.16-25.87-3.69a44.82,44.82,0,0,1-14-9.94,14.68,14.68,0,0,0-2.31-2.08c-2.2-1.57-4.06-1.51-6.08.31a36.21,36.21,0,0,0-3.2,3.57,41.73,41.73,0,0,1-16.19,11.65c-8.5,3.52-17.06,3.05-25.52.05-11.81-4.19-20.55-11.8-25.21-23.65a23.53,23.53,0,0,1-1.72-9.61,9.88,9.88,0,0,1,2.56-6.55,7.5,7.5,0,0,1,11.71.27,13.18,13.18,0,0,1,2.54,5.62c2.23,9.8,8.79,15.25,18.11,17.78,6.54,1.78,12.32.05,17.41-4.25a27.16,27.16,0,0,0,7.21-9.75A44.18,44.18,0,0,0,314.77,354.08Z"/><path d="M228.76,256.06a19.1,19.1,0,0,1,13.86,7.08,15.66,15.66,0,0,1,3,16.14c-3.36,9.58-13.83,15.39-22.93,12.42a20.13,20.13,0,0,1-13.41-13.63c-2.31-7.34,2-16.2,9.24-19.89C221.42,256.7,224.22,256,228.76,256.06Z"/></svg>