<svg id="Layer_1" data-name="Layer 1" xmlns="http://www.w3.org/2000/svg" viewBox="0 0 520.56 520.56"><defs><style>.cls-1{fill:#fff;}</style></defs><path class="cls-1" d="M0,0H520.56V520.56H0ZM94.09,395.55c-.79.47-1.48.85-2.13,1.28-4.91,3.29-9.86,6.52-14.68,9.94a12.16,12.16,0,0,0-3,3.63,2.64,2.64,0,0,0,.34,3.34,2.83,2.83,0,0,0,3.15.54,24.77,24.77,0,0,0,3.74-2.06c4.74-3.12,9.43-6.29,14.16-9.42a16.28,16.28,0,0,1,2.07-1c2.19,3,4.18,5.89,6.35,8.64,8.75,11.13,19.38,20.39,30,29.59,9.52,8.22,20.59,14,31.85,19.4a140.63,140.63,0,0,0,43.57,13.29c7.76,1,15.5,2.21,23.27,3.15q11.88,1.46,23.82,2.56a130.68,130.68,0,0,0,33.92-1.65,187.06,187.06,0,0,0,48-14.67c17.08-7.93,33.15-17.22,46.42-30.91,10.13-10.45,20.57-20.59,28.76-32.75,1.77-2.62,3.89-5,5.91-7.58a37.71,37.71,0,0,1,3.55,1.83q7.09,4.68,14.11,9.49c1.34.91,2.61,1.86,4.32,1.87,2.19,0,3.13-.94,2.77-3.12a6.17,6.17,0,0,0-1.13-2.58,13.23,13.23,0,0,0-2.44-2.28A113.67,113.67,0,0,0,425.63,386c-.75-.41-1.47-.88-2.3-1.38l1.64-2.95c1.29.58,2.39,1,3.45,1.56a215.66,215.66,0,0,1,22.25,13.21,19.31,19.31,0,0,0,2.25,1.37,3.64,3.64,0,0,0,4.72-1A3.71,3.71,0,0,0,457,392a11.64,11.64,0,0,0-2-1.67c-8.34-5.5-16.58-11.16-25.79-15.2-.18-.08-.3-.33-.53-.6l1.12-1.9c1.94.6,3.78,1.11,5.58,1.75a127.08,127.08,0,0,1,28.53,14,5.73,5.73,0,0,0,3.81,1.2,3.37,3.37,0,0,0,3.2-4.14,5.44,5.44,0,0,0-2.6-3.59c-10.19-7-20.94-12.89-32.79-16.63-.67-.21-1.31-.47-2.07-.74.4-1,.73-1.8,1.07-2.6a129.46,129.46,0,0,0,6.5-18.78,280.57,280.57,0,0,0,7.71-43.84c.76-9,1.74-18,2.19-27,.69-13.89,1.13-27.8,1.45-41.71.25-10.94.25-21.9.19-32.85a139.91,139.91,0,0,0-1.87-21.23c-1-6.39-2.13-12.76-3.1-19.15a412.15,412.15,0,0,0-9.16-45.79c-1.69-6.24-3-12.57-5.54-18.57-4.27-10.22-10-19.64-16-28.87a18.88,18.88,0,0,0-3.16-3.59c-3.9-3.57-8.38-4.5-13.3-2.47a33.79,33.79,0,0,0-5.09,2.67,77.63,77.63,0,0,0-12.83,10C367.6,85.1,355,101.29,343.68,118.51c-3.51,5.34-6.86,10.79-10.24,16.22-2,3.17-4.85,4.23-8.41,3.73-2.14-.3-4.29-.56-6.38-1.07a144,144,0,0,0-28.68-3.9,351.92,351.92,0,0,0-35.73.26c-5.74.37-11.48.75-17.21,1.27-9.41.84-18.58,3.11-27.84,4.84-3.37.63-6.72,1.39-10.1,2-4.3.82-6.66-.37-8.53-4.29-.89-1.88-1.65-3.82-2.54-5.69-5.91-12.54-12.47-24.71-21.09-35.61-12.73-16.09-28.36-29-45.22-40.49a25,25,0,0,0-6.22-3c-4.83-1.55-9.36-.79-13.17,2.73a29,29,0,0,0-3.62,4.13,63.07,63.07,0,0,0-7.06,12.5c-5.31,12.41-10.27,25-14.33,37.85A502.47,502.47,0,0,0,63.2,167.68a504.6,504.6,0,0,0-7.64,59.37,219.4,219.4,0,0,0,1.16,38.78c1.07,9.84,2.25,19.68,3.22,29.54a162.79,162.79,0,0,0,4.68,27.12c4.1,15,9.87,29.35,15.79,43.67,1.22,2.94,2.53,5.84,3.87,8.9-.91.33-1.64.61-2.39.86-11.43,3.7-21.8,9.49-31.67,16.24a7.72,7.72,0,0,0-2,2,3.68,3.68,0,0,0-.16,4.28,3.45,3.45,0,0,0,3.82,1.41,8.42,8.42,0,0,0,2.82-1.22A128.26,128.26,0,0,1,84.6,384.21c1-.36,2.11-.63,3.32-1l1,2.23a8.62,8.62,0,0,1-.78.51c-8.74,4-16.69,9.41-24.67,14.73A11.22,11.22,0,0,0,61,402.92a3.53,3.53,0,0,0-.13,4.25,3.37,3.37,0,0,0,3.84,1.25A9.66,9.66,0,0,0,67,407.29c4.53-2.85,9-5.82,13.58-8.57,3.76-2.25,7.68-4.24,11.67-6.43Z"/><path d="M94.09,395.55l-1.8-3.26c-4,2.19-7.91,4.18-11.67,6.43-4.59,2.75-9.05,5.72-13.58,8.57a9.66,9.66,0,0,1-2.36,1.13,3.37,3.37,0,0,1-3.84-1.25,3.53,3.53,0,0,1,.13-4.25,11.22,11.22,0,0,1,2.48-2.23c8-5.32,15.93-10.7,24.67-14.73a8.62,8.62,0,0,0,.78-.51l-1-2.23c-1.21.36-2.28.63-3.32,1a128.26,128.26,0,0,0-29.93,14.42,8.42,8.42,0,0,1-2.82,1.22A3.45,3.45,0,0,1,48,398.44a3.68,3.68,0,0,1,.16-4.28,7.72,7.72,0,0,1,2-2c9.87-6.75,20.24-12.54,31.67-16.24.75-.25,1.48-.53,2.39-.86-1.34-3.06-2.65-6-3.87-8.9-5.92-14.32-11.69-28.69-15.79-43.67a162.79,162.79,0,0,1-4.68-27.12c-1-9.86-2.15-19.7-3.22-29.54a219.4,219.4,0,0,1-1.16-38.78,504.6,504.6,0,0,1,7.64-59.37A502.47,502.47,0,0,1,77.31,110c4.06-12.87,9-25.44,14.33-37.85a63.07,63.07,0,0,1,7.06-12.5,29,29,0,0,1,3.62-4.13c3.81-3.52,8.34-4.28,13.17-2.73a25,25,0,0,1,6.22,3c16.86,11.5,32.49,24.4,45.22,40.49,8.62,10.9,15.18,23.07,21.09,35.61.89,1.87,1.65,3.81,2.54,5.69,1.87,3.92,4.23,5.11,8.53,4.29,3.38-.64,6.73-1.4,10.1-2,9.26-1.73,18.43-4,27.84-4.84,5.73-.52,11.47-.9,17.21-1.27a351.92,351.92,0,0,1,35.73-.26,144,144,0,0,1,28.68,3.9c2.09.51,4.24.77,6.38,1.07,3.56.5,6.44-.56,8.41-3.73,3.38-5.43,6.73-10.88,10.24-16.22C355,101.29,367.6,85.1,382.46,70.75a77.63,77.63,0,0,1,12.83-10,33.79,33.79,0,0,1,5.09-2.67c4.92-2,9.4-1.1,13.3,2.47a18.88,18.88,0,0,1,3.16,3.59c6.05,9.23,11.77,18.65,16,28.87,2.51,6,3.85,12.33,5.54,18.57a412.15,412.15,0,0,1,9.16,45.79c1,6.39,2.07,12.76,3.1,19.15a139.91,139.91,0,0,1,1.87,21.23c.06,10.95.06,21.91-.19,32.85-.32,13.91-.76,27.82-1.45,41.71-.45,9-1.43,18-2.19,27A280.57,280.57,0,0,1,441,343.13a129.46,129.46,0,0,1-6.5,18.78c-.34.8-.67,1.61-1.07,2.6.76.27,1.4.53,2.07.74,11.85,3.74,22.6,9.63,32.79,16.63a5.44,5.44,0,0,1,2.6,3.59,3.37,3.37,0,0,1-3.2,4.14,5.73,5.73,0,0,1-3.81-1.2,127.08,127.08,0,0,0-28.53-14c-1.8-.64-3.64-1.15-5.58-1.75l-1.12,1.9c.23.27.35.52.53.6,9.21,4,17.45,9.7,25.79,15.2a11.64,11.64,0,0,1,2,1.67,3.71,3.71,0,0,1,.63,4.8,3.64,3.64,0,0,1-4.72,1,19.31,19.31,0,0,1-2.25-1.37,215.66,215.66,0,0,0-22.25-13.21c-1.06-.53-2.16-1-3.45-1.56l-1.64,2.95c.83.5,1.55,1,2.3,1.38a113.67,113.67,0,0,1,15.16,10.08,13.23,13.23,0,0,1,2.44,2.28,6.17,6.17,0,0,1,1.13,2.58c.36,2.18-.58,3.14-2.77,3.12-1.71,0-3-1-4.32-1.87q-7-4.8-14.11-9.49a37.71,37.71,0,0,0-3.55-1.83c-2,2.57-4.14,5-5.91,7.58-8.19,12.16-18.63,22.3-28.76,32.75-13.27,13.69-29.34,23-46.42,30.91a187.06,187.06,0,0,1-48,14.67,130.68,130.68,0,0,1-33.92,1.65q-11.92-1.11-23.82-2.56c-7.77-.94-15.51-2.15-23.27-3.15A140.63,140.63,0,0,1,166,459.45c-11.26-5.44-22.33-11.18-31.85-19.4-10.64-9.2-21.27-18.46-30-29.59-2.17-2.75-4.16-5.65-6.35-8.64a16.28,16.28,0,0,0-2.07,1c-4.73,3.13-9.42,6.3-14.16,9.42a24.77,24.77,0,0,1-3.74,2.06,2.83,2.83,0,0,1-3.15-.54,2.64,2.64,0,0,1-.34-3.34,12.16,12.16,0,0,1,3-3.63c4.82-3.42,9.77-6.65,14.68-9.94C92.61,396.4,93.3,396,94.09,395.55Zm172.67,65.24c6.85-.71,14.2-1.16,21.45-2.28a160.37,160.37,0,0,0,45.08-14.15c8.94-4.3,17.9-8.61,25.72-14.78,9.54-7.53,18.75-15.4,26.09-25.29,4.52-6.09,9.24-12,13.29-18.47a27.36,27.36,0,0,1,4.68-5.4,26.51,26.51,0,0,0,5.51-6.89,195.07,195.07,0,0,0,11.72-25.44,29.76,29.76,0,0,0,1.22-3.63c1.15-5.08-.45-6.73-4.1-8.06-1.19-.44-2.44-.76-3.67-1.1a65.53,65.53,0,0,1-33-21.15,47.08,47.08,0,0,0-9.07-8.82,9.7,9.7,0,0,1-4.31-7.93c-.11-2.79-.11-5.59-.29-8.38-.47-7.07-3-13.22-8.41-17.95a28,28,0,0,0-12.17-5.91,14.69,14.69,0,0,0-12.94,2.57,33,33,0,0,0-4.17,3.94,58,58,0,0,0-8,11.33,16.4,16.4,0,0,1-4.93,6.09A6.91,6.91,0,0,1,307,288c-2.35-2.61-2.64-5.71-2-9s2.27-6.29,3.76-9.3c2-4.05,1.67-6.19-1.66-9.12a33.88,33.88,0,0,1-7.58-9.22c-3-5.47-5.85-11-8.47-16.64-5-10.73-9.48-21.65-12.51-33.12-1.24-4.71-2.37-9.45-3.7-14.13a18.26,18.26,0,0,0-2.19-5c-1.08-1.64-2.5-1.58-3.74,0a11.41,11.41,0,0,0-1.67,3.14c-.59,1.65-.94,3.38-1.45,5.06a10.79,10.79,0,0,1-3,5.12,5.63,5.63,0,0,1-7.25.73,11,11,0,0,1-4-4.35c-.93-1.76-1.65-3.63-2.51-5.43A20,20,0,0,0,247,183c-1.7-2.14-3.61-2-5,.31a12.09,12.09,0,0,0-1.45,3.77c-2.12,10.55-5.75,20.6-9.83,30.51-3.19,7.75-6.33,15.56-11.12,22.51-2.45,3.56-2.49,6.94-.65,10.79a91.16,91.16,0,0,1,4.48,11.58,44.87,44.87,0,0,1,2,20.36,74.23,74.23,0,0,1-16.05,36.9,50,50,0,0,1-29.22,17.93,74,74,0,0,1-25.28.41c-5.21-.7-10.37-1.86-15.52-2.92-3.58-.74-6.57-.21-9,2.85a39.38,39.38,0,0,1-5.2,5.29,163.72,163.72,0,0,1-19.19,14.34,28.8,28.8,0,0,0-3.3,2.38,5.42,5.42,0,0,0-1.94,6,44.7,44.7,0,0,0,1.92,5.14,138.45,138.45,0,0,0,10.21,20.05,94.79,94.79,0,0,0,14,17.3c5.77,5.53,11.62,11,17.6,16.28,9.32,8.26,20.2,14,31.46,19.05,6.19,2.78,12.39,5.55,19,7.29,9.92,2.63,20.07,3.83,30.19,5.22,7.2,1,14.42,1.9,21.64,2.68C253.19,459.71,259.72,460.18,266.76,460.79ZM167.32,320.61c1.67-.14,4.06-.27,6.44-.57,7.73-1,14.44-4.1,19.6-10a61.87,61.87,0,0,0,6.94-9.43c4.13-7.05,7-14.72,6.83-22.92-.43-15.88-7.56-28.29-21.09-36.79a34.38,34.38,0,0,0-20.85-5.06,130.75,130.75,0,0,0-14.49,1.73c-7.63,1.33-14.6,4.34-20,10.08-11,11.77-16.2,25.59-13,41.72,2.74,14,10.75,23.66,24.78,27.65A107.15,107.15,0,0,0,167.32,320.61Zm-84.12-141c.08,1.52.08,3,.28,4.54a13,13,0,0,0,.88,3.45c.73,1.65,1.87,2.19,3.5,1.46a12.76,12.76,0,0,0,3.91-2.65,189.79,189.79,0,0,1,23.91-20.68C127,157.4,139.29,150.85,153,147.14a15,15,0,0,0,2.89-1.14,4.71,4.71,0,0,0,2.74-5.73,14.28,14.28,0,0,0-1.13-3.15c-3.09-6.22-6.11-12.48-9.36-18.62-4.25-8-9.31-15.5-16.37-21.39-3.19-2.66-6.46-5.22-9.72-7.8A10.93,10.93,0,0,0,120,88c-2.85-1.39-5.09-.81-6.85,1.81a18.7,18.7,0,0,0-1.6,3c-3.94,9.08-8,18.11-11.72,27.29-5.58,13.78-9.39,28.16-13.55,42.41C84.64,168.09,83.23,173.76,83.2,179.66Zm341,4.16c-.24-1.77-.32-3.47-.7-5.09-1.49-6.2-3.17-12.36-4.59-18.58A283.91,283.91,0,0,0,403.12,112c-1.56-3.67-3.16-7.34-5.05-10.84s-5-4-8.16-1.38a30,30,0,0,0-2.73,2.68,174.06,174.06,0,0,0-25.72,36,11.82,11.82,0,0,0-.91,2.21c-.79,2.75,0,4.63,2.48,6a19.12,19.12,0,0,0,2.39,1.1,122.69,122.69,0,0,1,40.23,25.88c3.72,3.6,7,7.67,10.52,11.47a16.78,16.78,0,0,0,3.39,3c2,1.2,3.39.6,4.08-1.53A19.75,19.75,0,0,0,424.15,183.82Z"/><path class="cls-1" d="M266.76,460.79c-7-.61-13.57-1.08-20.08-1.78-7.22-.78-14.44-1.69-21.64-2.68-10.12-1.39-20.27-2.59-30.19-5.22-6.59-1.74-12.79-4.51-19-7.29-11.26-5.06-22.14-10.79-31.46-19.05-6-5.3-11.83-10.75-17.6-16.28a94.79,94.79,0,0,1-14-17.3,138.45,138.45,0,0,1-10.21-20.05,44.7,44.7,0,0,1-1.92-5.14,5.42,5.42,0,0,1,1.94-6,28.8,28.8,0,0,1,3.3-2.38,163.72,163.72,0,0,0,19.19-14.34,39.38,39.38,0,0,0,5.2-5.29c2.42-3.06,5.41-3.59,9-2.85,5.15,1.06,10.31,2.22,15.52,2.92a74,74,0,0,0,25.28-.41,50,50,0,0,0,29.22-17.93,74.23,74.23,0,0,0,16.05-36.9,44.87,44.87,0,0,0-2-20.36,91.16,91.16,0,0,0-4.48-11.58c-1.84-3.85-1.8-7.23.65-10.79,4.79-7,7.93-14.76,11.12-22.51,4.08-9.91,7.71-20,9.83-30.51a12.09,12.09,0,0,1,1.45-3.77c1.38-2.32,3.29-2.45,5-.31a20,20,0,0,1,2.06,3.75c.86,1.8,1.58,3.67,2.51,5.43a11,11,0,0,0,4,4.35,5.63,5.63,0,0,0,7.25-.73,10.79,10.79,0,0,0,3-5.12c.51-1.68.86-3.41,1.45-5.06a11.41,11.41,0,0,1,1.67-3.14c1.24-1.57,2.66-1.63,3.74,0a18.26,18.26,0,0,1,2.19,5c1.33,4.68,2.46,9.42,3.7,14.13,3,11.47,7.53,22.39,12.51,33.12,2.62,5.64,5.5,11.17,8.47,16.64a33.88,33.88,0,0,0,7.58,9.22c3.33,2.93,3.67,5.07,1.66,9.12-1.49,3-3.1,6-3.76,9.3s-.37,6.38,2,9a6.91,6.91,0,0,0,9.51,1.11,16.4,16.4,0,0,0,4.93-6.09,58,58,0,0,1,8-11.33,33,33,0,0,1,4.17-3.94,14.69,14.69,0,0,1,12.94-2.57,28,28,0,0,1,12.17,5.91c5.43,4.73,7.94,10.88,8.41,17.95.18,2.79.18,5.59.29,8.38a9.7,9.7,0,0,0,4.31,7.93,47.08,47.08,0,0,1,9.07,8.82,65.53,65.53,0,0,0,33,21.15c1.23.34,2.48.66,3.67,1.1,3.65,1.33,5.25,3,4.1,8.06a29.76,29.76,0,0,1-1.22,3.63,195.07,195.07,0,0,1-11.72,25.44,26.51,26.51,0,0,1-5.51,6.89,27.36,27.36,0,0,0-4.68,5.4c-4.05,6.44-8.77,12.38-13.29,18.47-7.34,9.89-16.55,17.76-26.09,25.29-7.82,6.17-16.78,10.48-25.72,14.78a160.37,160.37,0,0,1-45.08,14.15C281,459.63,273.61,460.08,266.76,460.79ZM250,354h0c0,1.12,0,2.25,0,3.36-.35,8.25-2.49,16-7.36,22.71-6.86,9.41-16.43,12.16-27.23,6.67-6.23-3.16-10.67-8-12.3-15.09a17,17,0,0,0-2.33-5.71c-3.06-4.51-8.71-4.64-12.25-.51a9.91,9.91,0,0,0-2.33,6.15,23.21,23.21,0,0,0,1.67,9.62c4.67,11.94,13.46,19.6,25.37,23.8,8.56,3,17.19,3.42,25.74-.22a41.82,41.82,0,0,0,15.94-11.6,36.39,36.39,0,0,1,3-3.4c2.09-1.92,4-2,6.27-.33a14.33,14.33,0,0,1,2.13,1.92,44.65,44.65,0,0,0,14.18,10.09c7.93,3.69,16.21,5.55,24.92,3.77,14-2.88,23.51-11.49,28.93-24.47,3.31-7.93,3.21-16.21.56-24.41a12.54,12.54,0,0,0-3.49-5.64A8.1,8.1,0,0,0,318.17,354a11,11,0,0,0-.27,5.68c.7,3.85,1.41,7.67.77,11.65-1.31,8.21-9.11,16-17.2,16.81-11.14,1.17-24.68-5.21-28-19-1.1-4.58-2-9.21-2.87-13.84-.43-2.18-.8-4.39-1-6.61a5.89,5.89,0,0,1,2.67-5.57c1.29-.94,2.64-1.8,3.95-2.72a20.22,20.22,0,0,0,6.51-7.24c2.83-5.43,1.86-11.21-2.8-15.18a20.45,20.45,0,0,0-5.32-3.14,21.46,21.46,0,0,0-9.15-1.54A65.23,65.23,0,0,0,243,317.84a28.86,28.86,0,0,0-5.87,3.21c-3.55,2.51-5.22,6-4.43,10.39a10.7,10.7,0,0,0,7.61,8.74c1.21.41,2.47.65,3.7,1,4.21,1.17,5.79,3.13,6,7.55C250.08,350.47,250,352.24,250,354Z"/><path class="cls-1" d="M167.32,320.61A107.15,107.15,0,0,1,142.47,317c-14-4-22-13.68-24.78-27.65-3.16-16.13,2-29.95,13-41.72,5.37-5.74,12.34-8.75,20-10.08a130.75,130.75,0,0,1,14.49-1.73A34.38,34.38,0,0,1,186,240.91c13.53,8.5,20.66,20.91,21.09,36.79.22,8.2-2.7,15.87-6.83,22.92a61.87,61.87,0,0,1-6.94,9.43c-5.16,5.89-11.87,9-19.6,10C171.38,320.34,169,320.47,167.32,320.61Zm-4.61-64.56a18.87,18.87,0,0,0-9,2.14c-7.26,3.7-11.54,12.57-9.21,19.91a20.13,20.13,0,0,0,13.43,13.61c9.1,3,19.56-2.86,22.91-12.45a15.67,15.67,0,0,0-3-16.13A19.7,19.7,0,0,0,162.71,256.05Z"/><path class="cls-1" d="M83.2,179.66c0-5.9,1.44-11.57,3.08-17.17,4.16-14.25,8-28.63,13.55-42.41,3.71-9.18,7.78-18.21,11.72-27.29a18.7,18.7,0,0,1,1.6-3c1.76-2.62,4-3.2,6.85-1.81a10.93,10.93,0,0,1,2,1.28c3.26,2.58,6.53,5.14,9.72,7.8,7.06,5.89,12.12,13.36,16.37,21.39,3.25,6.14,6.27,12.4,9.36,18.62a14.28,14.28,0,0,1,1.13,3.15,4.71,4.71,0,0,1-2.74,5.73,15,15,0,0,1-2.89,1.14c-13.68,3.71-25.93,10.26-37.29,18.64a189.79,189.79,0,0,0-23.91,20.68,12.76,12.76,0,0,1-3.91,2.65c-1.63.73-2.77.19-3.5-1.46a13,13,0,0,1-.88-3.45C83.28,182.7,83.28,181.18,83.2,179.66Z"/><path class="cls-1" d="M424.15,183.82a19.75,19.75,0,0,1-.51,2.73c-.69,2.13-2.12,2.73-4.08,1.53a16.78,16.78,0,0,1-3.39-3c-3.53-3.8-6.8-7.87-10.52-11.47a122.69,122.69,0,0,0-40.23-25.88,19.12,19.12,0,0,1-2.39-1.1c-2.5-1.42-3.27-3.3-2.48-6a11.82,11.82,0,0,1,.91-2.21,174.06,174.06,0,0,1,25.72-35.95,30,30,0,0,1,2.73-2.68c3.12-2.63,6.24-2.21,8.16,1.38s3.49,7.17,5.05,10.84a283.91,283.91,0,0,1,15.74,48.16c1.42,6.22,3.1,12.38,4.59,18.58C423.83,180.35,423.91,182.05,424.15,183.82Z"/><path d="M250,354c0-1.75.07-3.52,0-5.27-.2-4.42-1.78-6.38-6-7.55-1.23-.34-2.49-.58-3.7-1a10.7,10.7,0,0,1-7.61-8.74c-.79-4.41.88-7.88,4.43-10.39a28.86,28.86,0,0,1,5.87-3.21,65.23,65.23,0,0,1,22.43-4.53,21.46,21.46,0,0,1,9.15,1.54A20.45,20.45,0,0,1,279.9,318c4.66,4,5.63,9.75,2.8,15.18a20.22,20.22,0,0,1-6.51,7.24c-1.31.92-2.66,1.78-3.95,2.72a5.89,5.89,0,0,0-2.67,5.57c.23,2.22.6,4.43,1,6.61.9,4.63,1.77,9.26,2.87,13.84,3.32,13.82,16.86,20.2,28,19,8.09-.85,15.89-8.6,17.2-16.81.64-4-.07-7.8-.77-11.65a11,11,0,0,1,.27-5.68,8.1,8.1,0,0,1,13.28-3.34,12.54,12.54,0,0,1,3.49,5.64c2.65,8.2,2.75,16.48-.56,24.41-5.42,13-14.89,21.59-28.93,24.47-8.71,1.78-17-.08-24.92-3.77a44.65,44.65,0,0,1-14.18-10.09,14.33,14.33,0,0,0-2.13-1.92c-2.28-1.65-4.18-1.59-6.27.33a36.39,36.39,0,0,0-3,3.4A41.82,41.82,0,0,1,239,404.77c-8.55,3.64-17.18,3.23-25.74.22-11.91-4.2-20.7-11.86-25.37-23.8a23.21,23.21,0,0,1-1.67-9.62,9.91,9.91,0,0,1,2.33-6.15c3.54-4.13,9.19-4,12.25.51a17,17,0,0,1,2.33,5.71c1.63,7.1,6.07,11.93,12.3,15.09,10.8,5.49,20.37,2.74,27.23-6.67,4.87-6.69,7-14.46,7.36-22.71.05-1.11,0-2.24,0-3.36Z"/><path d="M162.71,256.05a19.7,19.7,0,0,1,15.12,7.08,15.67,15.67,0,0,1,3,16.13c-3.35,9.59-13.81,15.41-22.91,12.45A20.13,20.13,0,0,1,144.5,278.1c-2.33-7.34,1.95-16.21,9.21-19.91A18.87,18.87,0,0,1,162.71,256.05Z"/></svg>